# xmcd
#
# Track frame offsets: 
#        157
#        17137
#        35207
#
# Disc length: 698 seconds
#
# Revision: 0
# Processed by: cddbd v1.5.2PL0 Copyright (c) Steve Scherf et al.
# Submitted via: ExactAudioCopy v0.99pb3
#
DISCID=2102b803
DTITLE=Sahara Hotnights - Quite A Feeling
DYEAR=1999
DGENRE=Speech
TTITLE0=Quite A Feeling
TTITLE1=Wake Up
TTITLE2=Oh Darling!
EXTD=
EXTT0=
EXTT1=
EXTT2=
PLAYORDER=
